<?xml version="1.0" encoding="UTF-8" standalone="no"?>
<!-- Created with Inkscape (http://www.inkscape.org/) -->

<svg
   width="210mm"
   height="297mm"
   viewBox="0 0 210 297"
   version="1.1"
   id="svg5"
   inkscape:version="1.2.1 (9c6d41e410, 2022-07-14)"
   sodipodi:docname="logo.svg"
   xmlns:inkscape="http://www.inkscape.org/namespaces/inkscape"
   xmlns:sodipodi="http://sodipodi.sourceforge.net/DTD/sodipodi-0.dtd"
   xmlns="http://www.w3.org/2000/svg"
   xmlns:svg="http://www.w3.org/2000/svg">
  <sodipodi:namedview
     id="namedview7"
     pagecolor="#ffffff"
     bordercolor="#000000"
     borderopacity="0.25"
     inkscape:showpageshadow="2"
     inkscape:pageopacity="0.0"
     inkscape:pagecheckerboard="0"
     inkscape:deskcolor="#d1d1d1"
     inkscape:document-units="mm"
     showgrid="false"
     inkscape:zoom="0.76969697"
     inkscape:cx="371.5748"
     inkscape:cy="561.90945"
     inkscape:window-width="1816"
     inkscape:window-height="1051"
     inkscape:window-x="-9"
     inkscape:window-y="-9"
     inkscape:window-maximized="1"
     inkscape:current-layer="layer1" />
  <defs
     id="defs2">
    <rect
       x="305.31496"
       y="544.37008"
       width="379.37008"
       height="79.251969"
       id="rect1547" />
  </defs>
  <g
     inkscape:label="Layer 1"
     inkscape:groupmode="layer"
     id="layer1">
    <path
       style="fill:#ffcc00;stroke-width:0.264583"
       id="path1008"
       d="m 48.140939,161.84439 c -0.0026,-0.63376 -0.036,-1.26816 -0.0076,-1.90129 0.07586,-1.69029 0.366856,-4.19386 0.573837,-5.83004 0.401283,-3.17214 0.964102,-6.30055 1.571339,-9.43836 1.349497,-6.4645 4.030207,-12.50918 6.934086,-18.4016 1.083297,-2.05401 2.234967,-4.08006 3.613632,-5.95312 0.448476,-0.6093 1.199086,-1.55933 1.811848,-2.06997 0.232687,-0.19391 0.511656,-0.32433 0.767484,-0.48649 0.227024,0.1162 0.923986,0.42625 0.681067,0.34859 -0.868413,-0.27762 -1.73346,-1.32551 -2.564577,-0.95073 -0.584417,0.26354 0.621263,1.12387 0.876107,1.71213 0.440764,1.01742 0.835938,2.05477 1.208238,3.09918 1.17489,3.29592 2.098678,6.46936 3.126629,9.82628 1.702713,5.62829 3.28835,11.29326 4.746699,16.9899 0.610386,2.38429 1.638657,6.31025 1.911855,8.85286 0.123394,1.1484 0.04785,2.30954 0.07177,3.46431 -0.302775,0.96011 -0.390117,2.01724 -0.90833,2.88035 -1.246182,2.07557 -3.510325,3.16663 -5.681194,3.9271 -3.634192,1.27307 -6.61548,1.57239 -10.513094,1.407 -2.204665,-0.0935 -4.383927,-0.50829 -6.575891,-0.76245 -6.980343,-1.38015 -13.564624,-3.96937 -19.52462,-7.86843 -0.720487,-0.47135 -1.285734,-1.14567 -1.914213,-1.73413 -1.153028,-1.0796 -2.460591,-2.02251 -3.429914,-3.26968 -0.736856,-0.94806 -1.076151,-2.14686 -1.614227,-3.2203 0.258485,-1.07767 0.124719,-2.33594 0.775456,-3.233 0.97954,-1.35033 2.421581,-2.34602 3.870872,-3.17212 6.354578,-3.62213 12.71966,-4.2691 20.052693,-5.29696 13.226407,-1.85392 24.385061,-2.31168 37.820832,-3.19731 32.786187,-1.62507 65.620517,-1.95684 98.441047,-1.74632 0,0 -2.367,-1.71825 -2.367,-1.71825 v 0 c -32.48514,0.48246 -64.97651,0.999 -97.434275,2.48883 -14.792894,0.81874 -24.026865,1.07784 -38.459298,2.77058 -7.992093,0.93737 -14.107933,1.14045 -20.952296,4.87984 -1.546686,0.84503 -3.099613,1.86049 -4.151048,3.27499 -0.711364,0.95699 -0.575846,2.31428 -0.863769,3.47142 0.560138,1.12723 0.91172,2.38494 1.680413,3.38169 2.515346,3.2616 8.097726,6.52285 11.065931,8.35915 1.905867,1.17909 3.835859,2.33429 5.860893,3.29439 5.851767,2.77442 7.527169,2.88526 13.750635,4.47681 2.223846,0.25661 4.435028,0.67307 6.671537,0.76985 3.961249,0.17145 7.069169,-0.11083 10.774548,-1.39737 2.316834,-0.80441 4.612687,-1.91677 5.920062,-4.12924 0.533485,-0.9028 0.614416,-2.00528 0.921623,-3.00792 -0.03853,-1.18308 0.02498,-2.3739 -0.115599,-3.54923 -0.309515,-2.58788 -1.402162,-6.51654 -2.045814,-8.9465 -1.506259,-5.68654 -3.082522,-11.35536 -4.743434,-16.99866 -0.877363,-3.04128 -1.898345,-6.68006 -2.878071,-9.73374 -1.107088,-3.45066 -2.104448,-7.5764 -6.774423,-7.83922 -0.261136,0.191 -0.544912,0.35438 -0.783405,0.573 -0.619466,0.56783 -1.312365,1.50241 -1.77492,2.16654 -1.338583,1.92193 -2.468833,3.9774 -3.534095,6.06011 -2.833878,5.95635 -5.609741,11.99715 -6.965836,18.49244 -0.608061,3.14648 -1.157523,6.28185 -1.587487,9.45818 -0.150924,1.11494 -0.607925,4.56548 -0.716278,5.79822 -0.05437,0.61866 -0.05988,1.24064 -0.08982,1.86096 0,0 3.469378,1.76773 3.469378,1.76773 z" />
    <circle
       id="path1253"
       style="fill:#ff0000;stroke:#000000;stroke-width:0.264583"
       cx="18.90625"
       cy="18.5625"
       r="0.045787163" />
    <path
       style="fill:#ff0000;stroke-width:0.264583"
       id="path1269"
       d="m 75.930758,122.1453 c 0.703602,2.27889 1.605989,4.47519 2.725362,6.57992 0.766667,1.21662 1.343956,2.58309 2.278573,3.69028 0.450123,0.53323 0.687134,0.68364 1.221798,1.11561 1.054595,0.79982 2.288215,1.53113 3.539083,1.92843 0.281744,0.0895 1.242036,-0.4123 1.404189,-0.53659 0.274687,-0.21055 0.488217,-0.4907 0.732324,-0.73605 1.198205,-1.75845 1.956697,-3.83486 1.879521,-5.98798 -0.01455,-0.4056 -0.09908,-0.80565 -0.148622,-1.20848 -0.166809,-1.06699 -0.673695,-2.00211 -1.166619,-2.9436 -0.12404,-0.23692 -0.26121,-0.46732 -0.373603,-0.70998 -0.05358,-0.11569 -0.01281,-0.29803 -0.122983,-0.36217 -0.510273,-0.29705 -1.094468,-0.44341 -1.641703,-0.66511 0.12496,0.14884 0.260723,0.28925 0.37488,0.44654 0.773621,1.06592 1.389563,2.2431 2.131997,3.33095 0.883864,1.29508 1.116301,1.54497 2.079741,2.76135 0.503365,0.56899 1.44848,1.68079 2.048809,2.20241 0.33418,0.29038 0.6911,0.55788 1.070224,0.78648 1.113838,0.6716 2.580055,1.63523 3.981611,1.91335 0.448554,0.089 0.910786,0.0835 1.366179,0.12519 0.466524,-0.0325 0.938531,-0.0192 1.399571,-0.0976 1.91649,-0.32593 3.72548,-1.4748 4.4898,-3.33027 0.23716,-0.57575 0.29928,-1.20888 0.44892,-1.81332 -0.008,-0.77074 0.04,-1.54406 -0.0235,-2.31222 -0.41394,-5.01036 -3.02138,-10.21571 -5.22131,-14.66337 -1.459358,-2.78734 -1.054625,-2.06173 -2.465991,-4.59281 -0.234874,-0.4212 -1.175994,-1.98764 -1.38792,-2.64537 -0.02664,-0.0827 0.285149,0.15046 0.199906,0.16718 -0.282636,0.0554 -0.575511,-0.0247 -0.863267,-0.0371 0.472295,0.67083 0.963872,1.32848 1.416884,2.01248 2.444975,3.69166 4.710058,7.50398 7.127858,11.2136 2.34089,3.59161 3.29979,4.92869 5.70188,8.40109 2.03609,2.85043 4.1496,5.6605 6.53078,8.23565 0.38883,0.42052 1.89509,1.96564 2.53284,2.38556 0.74016,0.48736 1.54218,0.87357 2.31327,1.31035 0.40479,-0.21407 0.27068,-0.04 0.18709,-0.63217 0,0 -1.79542,-0.83093 -1.79542,-0.83093 v 0 c 0.24561,0.25205 0.31551,0.20585 0.0803,0.2382 0.33143,0.2112 1.15098,0.99399 0.99429,0.63358 -0.19297,-0.44385 -0.76306,-0.59709 -1.12036,-0.92355 -0.51517,-0.4707 -1.01556,-0.95843 -1.49468,-1.46577 -2.42959,-2.57268 -4.57668,-5.3985 -6.64645,-8.26238 -2.44829,-3.51859 -3.34459,-4.74849 -5.71358,-8.39843 -2.39001,-3.68233 -4.62846,-7.46061 -6.989988,-11.16035 -0.433652,-0.67939 -0.896496,-1.33971 -1.344745,-2.00956 -0.842396,-0.6233 -1.622065,-1.34181 -2.527189,-1.8699 -0.114967,-0.0671 -0.367408,0.0587 -0.350803,0.19075 0.0488,0.38809 0.322495,0.71341 0.507807,1.05787 1.124979,2.09118 2.436209,4.08324 3.45426,6.23354 2.216738,4.43871 4.785878,9.54837 5.205988,14.56379 0.0628,0.75022 0.0155,1.50563 0.0232,2.25844 -0.14367,0.58422 -0.20054,1.19692 -0.431,1.75265 -0.74756,1.80269 -2.53669,2.89053 -4.40045,3.17258 -0.456128,0.069 -0.921435,0.0472 -1.382154,0.0709 -0.448445,-0.0537 -0.904684,-0.062 -1.345332,-0.1611 -0.412279,-0.0927 -0.776917,-0.39651 -1.199242,-0.411 -0.219295,-0.008 0.714158,0.50997 0.531696,0.38809 -0.367226,-0.24529 -0.748097,-0.47442 -1.086221,-0.75849 -0.600914,-0.50484 -1.572583,-1.63279 -2.072153,-2.18935 -0.956953,-1.19388 -1.213077,-1.46727 -2.083475,-2.74215 -0.849553,-1.24435 -1.5603,-2.57431 -2.402422,-3.82314 -0.666705,-0.29938 -1.293722,-0.7107 -2.000115,-0.89813 -0.13604,-0.0361 0.07095,0.27393 0.129715,0.40183 0.548397,1.19356 1.392574,2.26198 1.590029,3.60033 0.0556,0.39338 0.14731,0.78333 0.166794,1.18013 0.10332,2.10399 -0.632894,4.1469 -1.820487,5.85388 -0.582459,0.55581 -0.656775,0.76942 -1.400553,1.00356 -0.204028,0.0642 -0.723498,-0.1034 -0.635156,0.0914 0.17595,0.388 0.726966,0.45952 1.023641,0.76527 0.329938,0.34002 -1.621457,-1.02921 -1.193022,-0.77264 -0.517324,-0.39493 -0.807294,-0.578 -1.246061,-1.07064 -0.965004,-1.08352 -1.5338,-2.46232 -2.310312,-3.67196 -1.124432,-2.08135 -2.038091,-4.2559 -2.704026,-6.52857 0,0 -1.779929,-0.84098 -1.779929,-0.84098 z" />
    <path
       style="fill:#ff0000;stroke-width:0.264583"
       id="path1271"
       d="m 94.390909,119.078 c 7.111781,-1.14214 14.321121,-1.5707 21.494481,-2.15595 0,0 -1.32393,-0.94545 -1.32393,-0.94545 v 0 c -7.25856,0.59732 -14.53789,1.05283 -21.764872,1.96842 0,0 1.594321,1.13298 1.594321,1.13298 z" />
    <path
       style="fill:#ff0000;stroke-width:0.264583"
       id="path1273"
       d="m 120.37865,120.26746 c -1.82297,0.80808 -3.29468,2.51779 -3.6984,4.49986 -0.0951,0.46688 -0.073,0.95014 -0.10943,1.42521 0.0816,0.46886 0.10414,0.95195 0.24484,1.40658 0.77024,2.48881 2.97972,3.84879 5.21006,4.90995 0.38898,0.18507 0.83571,0.20931 1.25356,0.31397 0.42568,-0.016 0.85627,0.0182 1.27705,-0.0481 1.72891,-0.27268 2.97145,-1.36742 3.72595,-2.90836 0.16918,-0.34552 0.27428,-0.71888 0.41142,-1.07832 0.0317,-0.36736 0.12668,-0.73471 0.0951,-1.10207 -0.22656,-2.63348 -3.53587,-3.80762 -5.43064,-4.79081 -0.34115,-0.0889 -0.6823,-0.17786 -1.02345,-0.26678 0,0 1.53939,1.18232 1.53939,1.18232 v 0 c 0.33432,0.0954 0.66863,0.19071 1.00294,0.28607 -0.20929,-0.16684 -0.88859,-0.56115 -0.62789,-0.50052 0.37608,0.0874 0.68643,0.35972 0.99874,0.58676 0.84458,0.61399 1.68759,1.52299 1.81961,2.60968 0.0425,0.34969 -0.044,0.70314 -0.0661,1.05471 -0.13038,0.34988 -0.22825,0.71366 -0.39114,1.04964 -0.72206,1.48923 -1.94149,2.53192 -3.61708,2.747 -0.41112,0.0528 -0.82896,0.003 -1.24344,0.005 -0.40753,-0.11686 -0.7989,-0.33555 -1.22259,-0.35059 -0.19791,-0.007 0.63839,0.46394 0.49744,0.32484 -0.31389,-0.30976 -0.71322,-0.52552 -1.0209,-0.84144 -1.00468,-1.03154 -1.57377,-2.28063 -1.72735,-3.70558 0.0285,-0.46097 -0.003,-0.92955 0.0856,-1.3829 0.37742,-1.94018 1.84272,-3.59464 3.64756,-4.31961 0,0 -1.63085,-1.10651 -1.63085,-1.10651 z" />
    <path
       style="fill:#ff0000;stroke-width:0.264583"
       id="path1275"
       d="m 126.67373,123.34877 c 1.07757,-0.008 2.26198,0.39183 3.32843,0.0816 0.17212,-0.0501 0.32107,-0.15949 0.4816,-0.23924 0.29475,-0.2605 0.6992,-0.716 1.1645,-0.597 0.18575,0.0475 0.67854,0.34874 0.49523,0.29256 -1.15528,-0.35405 -1.50839,-0.95682 -0.49166,0.2102 1.40295,2.01211 2.16243,4.3479 2.96725,6.63799 0.123,0.38237 0.25143,0.76303 0.36901,1.1471 0.27844,0.90953 0.28838,0.9683 0.47829,1.82293 0.0346,0.15589 -0.0495,0.41035 0.0992,0.46871 2.14062,0.84039 1.81196,0.62074 1.83457,-0.72255 -0.0817,-2.86052 0.66912,-5.58725 1.68182,-8.2321 0.49222,-1.00096 1.44273,-3.12973 2.94254,-2.76426 0.29278,0.0713 0.53243,0.28242 0.79865,0.42362 -0.28152,-0.0919 -0.79227,-0.56736 -0.84457,-0.27585 -0.0704,0.39227 0.51533,0.61205 0.72325,0.95206 0.98197,1.60578 1.58224,3.85615 2.24871,5.63206 1.05715,2.68495 2.11692,4.35617 5.11319,5.27799 0.32551,0.10014 0.6652,-0.14651 0.99779,-0.21976 0.31768,-0.29217 0.69009,-0.53425 0.95303,-0.87652 1.6019,-2.08514 2.20036,-6.14172 2.45103,-8.71895 0.2601,-0.76925 -0.14575,-1.58136 -0.0134,-2.35521 0.014,-0.0817 0.28745,-0.10077 0.21073,-0.13222 -0.33599,-0.13774 -1.08526,-0.58155 -1.06715,-0.21888 0.03,0.60043 0.76335,0.92936 1.12656,1.40842 0.45189,0.59604 0.87872,1.21068 1.31808,1.81601 1.97062,2.74241 3.96871,5.51677 6.62003,7.64461 0.91291,0.57771 1.45706,0.95735 2.68629,1.34172 0.11095,0.0347 0.17131,-0.15719 0.25696,-0.23578 0,0 -1.6823,-1.05293 -1.6823,-1.05293 v 0 c -1.00413,0.68777 2.5019,1.62788 0.54565,0.67017 -2.70777,-2.08381 -4.73379,-4.86383 -6.70664,-7.62251 -0.0326,-0.0458 -2.12004,-3.01426 -2.36643,-3.22473 -0.75155,-0.64198 -2.5141,-2.24523 -2.67918,-1.2707 -0.0536,0.31636 0.0412,0.64056 0.0496,0.96131 0.0121,0.46329 0.008,0.92687 0.0118,1.3903 -0.0487,0.55978 -0.0693,1.12272 -0.1461,1.67934 -0.28125,2.03881 -0.95176,5.26704 -2.25537,6.90207 -0.24857,0.31176 -0.60466,0.51992 -0.90699,0.77988 -0.31165,0.0442 -0.86968,-0.17544 -0.93495,0.13248 -0.0686,0.32339 0.8623,0.9367 0.77594,0.6176 -0.0878,-0.32443 -0.54511,-0.39826 -0.7813,-0.63738 -0.89547,-0.9066 -1.37037,-2.09568 -1.84572,-3.25138 -0.55875,-1.47955 -1.02808,-2.9982 -1.64372,-4.45547 -0.2317,-0.54845 -0.75885,-1.78602 -1.26131,-2.20586 -0.76373,-0.63815 -1.65264,-1.10943 -2.47895,-1.66414 -0.28974,-0.11501 -0.56065,-0.30078 -0.86922,-0.34504 -1.59604,-0.2289 -2.48706,1.86207 -3.02771,2.96285 -1.00723,2.66294 -1.77996,5.40546 -1.7308,8.28048 -0.0471,1.53783 -0.29156,1.22251 1.67289,2.46532 0.13846,0.0876 -0.0783,-0.3182 -0.11614,-0.47763 -0.2404,-1.01347 -0.51228,-2.01728 -0.86052,-3.0004 -0.81463,-2.29752 -1.55958,-4.64288 -2.92041,-6.6935 -1.06358,-1.30996 -0.56594,-0.84412 -2.84222,-2.1953 -0.69537,-0.41277 -1.24969,-0.0371 -1.76355,0.43986 -0.14737,0.0631 -0.28635,0.15139 -0.44212,0.18932 -1.07408,0.26153 -2.23331,-0.10522 -3.31179,-0.12108 0,0 1.5876,1.17781 1.5876,1.17781 z" />
    <circle
       id="path1277"
       style="fill:#ff0000;stroke:#000000;stroke-width:0.264583"
       cx="150.5625"
       cy="111.375"
       r="0.022893749" />
    <path
       style="fill:#ff0000;stroke-width:0.264583"
       id="path1279"
       d="m 148.32288,114.80269 c 0.74782,-0.45059 0.37162,-0.21056 1.12689,-0.72279 0,0 -1.65177,-1.05698 -1.65177,-1.05698 v 0 c -0.75313,0.49923 -0.37567,0.26654 -1.13075,0.7007 0,0 1.65563,1.07907 1.65563,1.07907 z" />
    <path
       style="fill:#ff0000;stroke-width:0.264583"
       id="path1281"
       d="m 166.45271,120.64467 c -0.31421,2.4482 -0.4202,4.91663 -0.51324,7.38118 0.0769,1.65782 0.3274,3.50384 1.61015,4.69969 0.22622,0.21089 0.48933,0.37838 0.73399,0.56757 0.86735,0.4707 1.70206,1.00727 2.60204,1.41211 0.58974,0.26528 2.29877,0.49965 2.84855,0.55982 1.22931,0.13453 2.22015,0.20986 3.4487,-0.0379 0.58195,-0.11738 1.13262,-0.35627 1.69894,-0.5344 0.50374,-0.31612 1.0536,-0.56853 1.51123,-0.94835 1.84676,-1.53272 2.89109,-3.97919 2.66399,-6.37054 -0.0482,-0.50719 -0.22917,-0.99283 -0.34376,-1.48925 -0.35681,-0.43733 -0.61522,-0.9783 -1.07044,-1.312 -1.06289,-0.77918 -2.21887,-1.44222 -3.4216,-1.98101 -0.83859,-0.37566 -1.75618,-0.55091 -2.65514,-0.74119 -2.28498,-0.48365 -3.79131,-0.60291 -6.12939,-0.42322 -1.02313,0.0786 -2.03128,0.29288 -3.04692,0.43932 -3.78297,1.24052 -1.97295,0.40703 -5.42085,2.52039 0,0 1.53651,0.99289 1.53651,0.99289 v 0 c 3.42413,-2.0638 1.62871,-1.24994 5.37792,-2.45989 1.01025,-0.1403 2.01328,-0.34969 3.03073,-0.42089 2.28451,-0.15986 3.88529,-0.0277 6.1132,0.47733 0.90255,0.20459 1.77211,0.53427 2.65896,0.79877 0.0666,0.0198 0.15173,0.005 0.20121,0.0542 0.39113,0.38538 0.73276,0.81797 1.09914,1.22695 0.12467,0.48324 0.3167,0.95395 0.37401,1.4497 0.26941,2.33077 -0.75011,4.72895 -2.56516,6.20797 -0.44954,0.36631 -0.98937,0.60515 -1.48406,0.90772 -0.55879,0.16694 -1.10304,0.39403 -1.67638,0.50082 -1.18869,0.2214 -2.24149,0.1416 -3.42811,-0.004 -0.53357,-0.0654 -1.06604,-0.14764 -1.59108,-0.26293 -0.42317,-0.0929 -0.83375,-0.48526 -1.24869,-0.36067 -0.28487,0.0855 0.48472,0.34486 0.72708,0.51728 -0.54976,-0.39362 -0.91976,-0.59207 -1.33057,-1.13613 -0.84782,-1.12283 -1.02852,-2.61621 -1.11095,-3.9697 0.0842,-2.4496 0.18015,-4.90697 0.5426,-7.33416 0,0 -1.74261,-0.92775 -1.74261,-0.92775 z" />
    <text
       xml:space="preserve"
       transform="matrix(0.81727499,0,0,1.6202979,-170.76143,-742.91765)"
       id="text1545"
       style="white-space:pre;shape-inside:url(#rect1547);fill:#280b0b"><tspan
         x="305.31445"
         y="555.3171"
         id="tspan1567">Where old meets perfect</tspan></text>
  </g>
</svg>
